<?xml version="1.0" encoding="UTF-8" standalone="no"?>
<!DOCTYPE svg PUBLIC "-//W3C//DTD SVG 1.1//EN" "http://www.w3.org/Graphics/SVG/1.1/DTD/svg11.dtd">
<svg width="100%" height="100%" viewBox="0 0 100 100" version="1.1" xmlns="http://www.w3.org/2000/svg" xmlns:xlink="http://www.w3.org/1999/xlink" xml:space="preserve" xmlns:serif="http://www.serif.com/" style="fill-rule:evenodd;clip-rule:evenodd;stroke-linejoin:round;stroke-miterlimit:2;">
    <path d="M49.88,9.588C25.193,9.588 5.18,24.725 5.18,43.399C5.18,46.178 5.636,48.875 6.472,51.459C8.516,57.777 12.895,63.402 18.892,67.766C18.984,68.512 19.026,69.275 19.026,70.042C19.026,79.908 11.982,91.192 11.982,91.192C24.723,90.124 38.311,76.125 38.311,76.125C38.311,76.125 38.283,76.098 38.237,76.056C41.948,76.811 45.852,77.214 49.88,77.214C66.173,77.214 80.424,70.62 88.236,60.768C92.261,55.691 94.58,49.751 94.58,43.399C94.58,24.725 74.567,9.588 49.88,9.588ZM65.468,65.138L50.927,50.597C48.828,51.545 46.534,52.049 44.162,52.049C39.774,52.049 35.649,50.34 32.545,47.236C29.441,44.133 27.732,40.007 27.733,35.618C27.732,26.559 35.104,19.188 44.163,19.188C53.223,19.188 60.593,26.559 60.593,35.618C60.593,37.99 60.091,40.283 59.141,42.382L73.683,56.924L65.468,65.138Z" style="fill-rule:nonzero;"/>
    <path d="M44.163,24.531C38.05,24.531 33.075,29.504 33.075,35.618C33.075,38.58 34.229,41.365 36.324,43.458C38.417,45.552 41.202,46.706 44.163,46.706C47.124,46.706 49.908,45.552 52.003,43.458C54.097,41.365 55.249,38.58 55.25,35.618C55.249,29.504 50.277,24.531 44.163,24.531Z" style="fill-rule:nonzero;"/>
</svg>
